<svg width="24" height="23" viewBox="0 0 24 23" fill="none" xmlns="http://www.w3.org/2000/svg">
<path d="M0 22.5L0.55 18.35C1.95 18.45 3 18.1833 3.7 17.55C4.4 16.9167 4.85 16.05 5.05 14.95C5.25 13.85 5.28333 12.6333 5.15 11.3H0V0H9.8V12.8C9.8 16.3 8.93333 18.9333 7.2 20.7C5.5 22.4667 3.1 23.0667 0 22.5ZM14.05 22.5L14.6 18.35C16 18.45 17.05 18.1833 17.75 17.55C18.45 16.9167 18.9 16.05 19.1 14.95C19.3 13.85 19.3333 12.6333 19.2 11.3H14.05V0H23.85V12.8C23.85 16.3 22.9833 18.9333 21.25 20.7C19.55 22.4667 17.15 23.0667 14.05 22.5Z" fill="#D6DAE3"/>
</svg>
